# xmcd
#
# Track frame offsets: 
#        150
#        18157
#        35972
#        53677
#        67302
#        83272
#        104197
#        127335
#        147710
#        165102
#        178930
#        194860
#        210635
#        227365
#        243005
#        255465
#        271872
#        290227
#        306267
#        322192
#        338635
#
# Disc length: 4692 seconds
#
# Revision: 2
# Processed by: cddbd v1.5.1PL0 Copyright (c) Steve Scherf et al.
# Submitted via: ExactAudioCopy v0.95b3
#
DISCID=45125215
DTITLE=Julio Iglesias - (2 in 1)
DYEAR=2003
DGENRE=Ballad
TTITLE0=Divorcio
TTITLE1=Corazon De Papel
TTITLE2=Criollo Soy
TTITLE3=Que Ganaste
TTITLE4=Como Han Passado Los Anos
TTITLE5=La Carretera II
TTITLE6=La Ciudad De Madrugada
TTITLE7=El Bacalao
TTITLE8=Echame A Mi La Culpa
TTITLE9=Esa Mujer
TTITLE10=Crazy In Love
TTITLE11=Una Donna Put Cambiar La Vita
TTITLE12=Il Destino
TTITLE13=Chi Mi Aspetttava Non E Pio La
TTITLE14=Se Tomassi
TTITLE15=Avanti Tutta
TTITLE16=Pensami
TTITLE17=La Sarabanda
TTITLE18=Momenti
TTITLE19=La Nostra Buona Educazione
TTITLE20=Sono Un Pirata Sono Un Signore
EXTD=
EXTT0=
EXTT1=
EXTT2=
EXTT3=
EXTT4=
EXTT5=
EXTT6=
EXTT7=
EXTT8=
EXTT9=
EXTT10=
EXTT11=
EXTT12=
EXTT13=
EXTT14=
EXTT15=
EXTT16=
EXTT17=
EXTT18=
EXTT19=
EXTT20=
PLAYORDER=
